# xmcd
#
# Track frame offsets:
#	150
#	13437
#	26707
#	41414
#	57369
#	82680
#	134546
#	166173
#	181001
#	199781
#	218319
#	234076
#	252917
#	279072
#	298861
#	319092
#	337364
#
# Disc length: 4767 seconds
#
# Revision: 0
# Processed by: cddbd v1.5.2PL0 Copyright (c) Steve Scherf et al.
# Submitted via: audiograbber 1.83.01
#
DISCID=e9129d11
DTITLE=Steve Winwood - Revolutions The Very Best of Steve Winwood
DYEAR=2010
DGENRE=Rock
TTITLE0=Gimme Some Lovin'
TTITLE1=I'm a Man
TTITLE2=Forty Thousand Headman
TTITLE3=No Face, No Name, No Number
TTITLE4=Dear Mr. Fantasy
TTITLE5=The Low Spark of High-Heeled Boys - edit
TTITLE6=Glad
TTITLE7=Can't Find My Way Home
TTITLE8=While You See a Chance - edit
TTITLE9=Valerie
TTITLE10=Spanish Dancer 2010 - radio edit
TTITLE11=Finer Things
TTITLE12=Higher Love
TTITLE13=Back in The High Life Again
TTITLE14=Roll With It - edit
TTITLE15=Dirty City - edit (featuring Eric Clapton)
TTITLE16=Don't You Know What the Night Can Do?
EXTD=
EXTT0=
EXTT1=
EXTT2=
EXTT3=
EXTT4=
EXTT5=
EXTT6=
EXTT7=
EXTT8=
EXTT9=
EXTT10=
EXTT11=
EXTT12=
EXTT13=
EXTT14=
EXTT15=
EXTT16=
PLAYORDER=
